<svg xmlns="http://www.w3.org/2000/svg" viewBox="0 0 1600 900" role="img" aria-labelledby="title desc">
  <title id="title">Professional security team outside a modern building</title>
  <desc id="desc">A confident security officer with radio in front of a glass office building and support team.</desc>
  <defs>
    <linearGradient id="sky" x1="0" x2="1" y1="0" y2="1">
      <stop offset="0" stop-color="#eaf4ff"/>
      <stop offset="0.48" stop-color="#f9fbff"/>
      <stop offset="1" stop-color="#c8dcf4"/>
    </linearGradient>
    <linearGradient id="glass" x1="0" x2="1" y1="0" y2="1">
      <stop offset="0" stop-color="#82b8e9"/>
      <stop offset="1" stop-color="#f6fbff"/>
    </linearGradient>
    <linearGradient id="navy" x1="0" x2="1" y1="0" y2="1">
      <stop offset="0" stop-color="#0b2d64"/>
      <stop offset="1" stop-color="#061735"/>
    </linearGradient>
    <filter id="shadow" x="-20%" y="-20%" width="140%" height="140%">
      <feDropShadow dx="0" dy="18" stdDeviation="18" flood-color="#061735" flood-opacity="0.22"/>
    </filter>
  </defs>
  <rect width="1600" height="900" fill="url(#sky)"/>
  <path d="M950 0h650v900H766z" fill="#d9eaf8"/>
  <g opacity="0.76">
    <path d="M940 86h174v145H913zM1147 86h174v145h-201zM1354 86h178v145h-205zM889 265h205v151H859zM1126 265h206v151h-236zM1365 265h205v151h-237zM842 450h229v157H810zM1104 450h229v157h-262zM1366 450h233v157h-266z" fill="url(#glass)" stroke="#ffffff" stroke-width="7"/>
    <path d="M787 645h258v194H748zM1081 645h257v194h-293zM1374 645h257v194h-293z" fill="url(#glass)" stroke="#ffffff" stroke-width="7"/>
  </g>
  <path d="M0 696c166-75 339-87 521-37 148 41 285 41 449 0 214-53 410-38 630 68v173H0z" fill="#dfe9f4"/>
  <path d="M0 762c220-62 421-58 605 13 148 57 331 54 521-3 181-54 339-42 474 35v93H0z" fill="#cfddec"/>
  <g opacity="0.32" fill="#0d49a0">
    <circle cx="132" cy="202" r="86"/>
    <circle cx="82" cy="131" r="38"/>
    <circle cx="160" cy="112" r="54"/>
    <circle cx="227" cy="155" r="45"/>
    <rect x="126" y="185" width="24" height="331" rx="12"/>
  </g>
  <g transform="translate(988 296) scale(.62)" opacity="0.72">
    <ellipse cx="174" cy="666" rx="146" ry="30" fill="#061735" opacity=".18"/>
    <path d="M104 236h140l35 83 8 226H58l8-226z" fill="#0b2d64"/>
    <path d="M104 236h140l12 48c-42 25-91 30-164 3z" fill="#103a78"/>
    <circle cx="174" cy="143" r="78" fill="#bf7d52"/>
    <path d="M93 121c19-71 82-102 159-62 11 35 4 63-22 87-24-32-86-38-137-25z" fill="#061735"/>
    <path d="M99 80c25-55 111-72 176-31 10 7 9 25-3 29-62-24-112-22-173 2z" fill="#0b2d64"/>
    <path d="M125 237h98l-49 53z" fill="#fff"/>
    <path d="M142 260h64l-19 286h-28z" fill="#ff6b16"/>
    <path d="M55 322c-66 69-69 150 20 219l37-43c-47-46-46-86 4-131z" fill="#0b2d64"/>
    <path d="M279 323c64 71 66 151-20 218l-37-43c47-46 45-88-5-131z" fill="#0b2d64"/>
    <path d="M113 545h122v77H113z" fill="#0a1f47"/>
    <rect x="64" y="616" width="220" height="42" rx="14" fill="#061735"/>
  </g>
  <g transform="translate(1110 350) scale(.5)" opacity="0.52">
    <ellipse cx="174" cy="666" rx="146" ry="30" fill="#061735" opacity=".18"/>
    <path d="M104 236h140l35 83 8 226H58l8-226z" fill="#0b2d64"/>
    <circle cx="174" cy="143" r="78" fill="#b9764d"/>
    <path d="M93 121c19-71 82-102 159-62 11 35 4 63-22 87-24-32-86-38-137-25z" fill="#061735"/>
    <path d="M99 80c25-55 111-72 176-31 10 7 9 25-3 29-62-24-112-22-173 2z" fill="#0b2d64"/>
    <path d="M125 237h98l-49 53z" fill="#fff"/>
    <rect x="64" y="616" width="220" height="42" rx="14" fill="#061735"/>
  </g>
  <g transform="translate(615 100)" filter="url(#shadow)">
    <ellipse cx="320" cy="747" rx="252" ry="46" fill="#061735" opacity=".2"/>
    <path d="M193 335h266l55 141 12 283H119l18-282z" fill="url(#navy)"/>
    <path d="M202 335h249l21 80c-82 44-173 47-292 4z" fill="#123f80"/>
    <path d="M242 338h154l-77 85z" fill="#fff"/>
    <path d="M285 382h70l-21 365h-31z" fill="#ff6b16"/>
    <circle cx="321" cy="205" r="117" fill="#c1845b"/>
    <path d="M198 177c30-109 132-150 241-88 13 60-5 105-52 141-35-45-108-72-189-53z" fill="#071a3d"/>
    <path d="M208 114c47-78 171-88 261-23 13 10 10 36-8 41-95-37-168-39-253-18z" fill="#0b2d64"/>
    <path d="M278 261c31 23 67 25 105 0-13 39-29 56-53 56-22 0-40-17-52-56z" fill="#985f43" opacity=".35"/>
    <path d="M117 482c-106 98-110 220 28 322l58-69c-78-68-76-128 9-193z" fill="#0a2758"/>
    <path d="M502 482c103 101 106 220-28 322l-58-69c78-68 76-128-9-193z" fill="#0a2758"/>
    <path d="M466 503l45-22 52 143-50 20z" fill="#c1845b"/>
    <rect x="522" y="334" width="28" height="224" rx="10" fill="#101827" transform="rotate(-15 536 446)"/>
    <rect x="493" y="390" width="80" height="128" rx="15" fill="#18243a"/>
    <rect x="509" y="410" width="48" height="26" rx="5" fill="#334a6f"/>
    <circle cx="533" cy="476" r="10" fill="#ff6b16"/>
    <path d="M207 746h223v87H207z" fill="#071a3d"/>
    <rect x="127" y="820" width="390" height="54" rx="17" fill="#061735"/>
    <path d="M148 464h355" stroke="#ffffff" stroke-opacity=".2" stroke-width="5"/>
    <path d="M237 506h166" stroke="#ffffff" stroke-opacity=".28" stroke-width="6" stroke-linecap="round"/>
  </g>
  <path d="M0 0h1600v900H0z" fill="none"/>
</svg>
